{"title":"Ghost.Of.Girlfriends.Past.2009.DVDSCR.XViD-Just4fun","uid":4998799,"size":728638875,"categoryP":"video","categoryS":"movies","magnet":"?xt=urn:btih:923d37847032a0352c31d8de5e91802cfef34b33&amp;dn=Ghost.Of.Girlfriends.Past.2009.DVDSCR.XViD-Just4fun&amp;tr=udp%3A%2F%2Ftracker.openbittorrent.com%3A80&amp;tr=udp%3A%2F%2Fopen.demonii.com%3A1337&amp;tr=udp%3A%2F%2Ftracker.coppersurfer.tk%3A6969&amp;tr=udp%3A%2F%2Fexodus.desync.com%3A6969","seeders":1,"leechers":0,"uploader":".BONE.","files":52,"time":1247418824,"description":"Video\nFormat : MPEG-4 Visual\nFormat profile : Streaming Video@L1\nFormat settings, BVOP : Yes\nFormat settings, QPel : No\nFormat settings, GMC : No warppoints\nFormat settings, Matrix : Default (H.263)\nMuxing mode : Packed bitstream\nCodec ID : XVID\nCodec ID/Hint : XviD\nDuration : 1h 34mn\nBit rate : 895 Kbps\nWidth : 640 pixels\nHeight : 272 pixels\nDisplay aspect ratio : 2.35\nFrame rate : 25.000 fps\nResolution : 24 bits\nColorimetry : 4:2:0\nScan type : Progressive\nBits/(Pixel*Frame) : 0.206\nStream size : 607 MiB (87%)\nWriting library : XviD 1.1.2 (UTC 2006-11-01)\n\nAudio\nFormat : MPEG Audio\nFormat version : Version 1\nFormat profile : Layer 3\nCodec ID : 55\nCodec ID/Hint : MP3\nDuration : 1h 34mn\nBit rate mode : Constant\nBit rate : 128 Kbps\nChannel(s) : 2 channels\nSampling rate : 48.0 KHz\nResolution : 16 bits\nStream size : 86.7 MiB (12%)\nAlignment : Aligned on interleaves\nInterleave, duration : 40 ms (1.00 video frame)\nInterleave, preload duration : 504 ms\nWriting library : LAME3.98r\n\nA bachelor is haunted by the ghosts of his past girlfriends at his younger brother's wedding\n &lt;a href=&quot;\nhttp://www.imdb.com/title/tt0821640/&quot; rel=&quot;nofollow&quot; target=&quot;_NEW&quot;&gt;\nhttp://www.imdb.com/title/tt0821640/&lt;/a&gt;\n","torrent":{"xt":"urn:btih:923d37847032a0352c31d8de5e91802cfef34b33","amp;dn":"Ghost.Of.Girlfriends.Past.2009.DVDSCR.XViD-Just4fun","amp;tr":["udp%3A%2F%2Ftracker.openbittorrent.com%3A80","udp%3A%2F%2Fopen.demonii.com%3A1337","udp%3A%2F%2Ftracker.coppersurfer.tk%3A6969","udp%3A%2F%2Fexodus.desync.com%3A6969"],"infoHash":"923d37847032a0352c31d8de5e91802cfef34b33","infoHashBuffer":{"type":"Buffer","data":[146,61,55,132,112,50,160,53,44,49,216,222,94,145,128,44,254,243,75,51]},"announce":[],"urlList":[]}}